<svg width="42" height="48" viewBox="0 0 42 48" fill="none" xmlns="http://www.w3.org/2000/svg">
<path fill-rule="evenodd" clip-rule="evenodd" d="M8.10214 23.9999L26.2084 4.5574C26.4594 4.3095 26.6585 4.01519 26.7943 3.6913C26.9301 3.3674 27 3.02025 27 2.66966C27 2.31908 26.9301 1.97192 26.7943 1.64803C26.6585 1.32413 26.4594 1.02983 26.2084 0.781925C25.9575 0.534024 25.6595 0.337379 25.3316 0.203216C25.0038 0.069053 24.6523 0 24.2974 0C23.9425 0 23.5911 0.069053 23.2632 0.203216C22.9353 0.337379 22.6374 0.534024 22.3864 0.781925L0.792985 22.1123C0.54162 22.3599 0.342189 22.6542 0.206116 22.9781C0.0700425 23.302 0 23.6493 0 24C0 24.3507 0.0700425 24.698 0.206116 25.0219C0.342189 25.3458 0.54162 25.6401 0.792985 25.8877L22.3864 47.2181C22.6374 47.466 22.9353 47.6626 23.2632 47.7968C23.5911 47.931 23.9425 48 24.2974 48C24.6523 48 25.0038 47.931 25.3316 47.7968C25.6595 47.6626 25.9575 47.466 26.2084 47.2181C26.4594 46.9702 26.6585 46.6759 26.7943 46.352C26.9301 46.0281 27 45.6809 27 45.3303C27 44.9798 26.9301 44.6326 26.7943 44.3087C26.6585 43.9848 26.4594 43.6905 26.2084 43.4426L8.10214 23.9999ZM23.1021 23.9999L41.2084 4.5574C41.4594 4.30949 41.6585 4.01519 41.7943 3.6913C41.9301 3.3674 42 3.02025 42 2.66966C42 2.31908 41.9301 1.97192 41.7943 1.64803C41.6585 1.32413 41.4594 1.02983 41.2084 0.781925C40.9575 0.534024 40.6595 0.337379 40.3316 0.203216C40.0038 0.069053 39.6523 0 39.2974 0C38.9425 0 38.5911 0.069053 38.2632 0.203216C37.9353 0.337379 37.6374 0.534024 37.3864 0.781925L15.793 22.1123C15.5416 22.3599 15.3422 22.6542 15.2061 22.9781C15.07 23.302 15 23.6493 15 24C15 24.3507 15.07 24.698 15.2061 25.0219C15.3422 25.3458 15.5416 25.6401 15.793 25.8877L37.3864 47.2181C37.6374 47.466 37.9353 47.6626 38.2632 47.7968C38.5911 47.931 38.9425 48 39.2974 48C39.6523 48 40.0038 47.931 40.3316 47.7968C40.6595 47.6626 40.9575 47.466 41.2084 47.2181C41.4594 46.9702 41.6585 46.6759 41.7943 46.352C41.9301 46.0281 42 45.6809 42 45.3303C42 44.9798 41.9301 44.6326 41.7943 44.3087C41.6585 43.9848 41.4594 43.6905 41.2084 43.4426L23.1021 23.9999Z" fill="#FF9737"/>
</svg>
