<svg width="42" height="48" viewBox="0 0 42 48" fill="none" xmlns="http://www.w3.org/2000/svg">
<path fill-rule="evenodd" clip-rule="evenodd" d="M18.8979 24.0001L0.791569 43.4426C0.540611 43.6905 0.341539 43.9848 0.205723 44.3087C0.0699043 44.6326 0 44.9798 0 45.3303C0 45.6809 0.0699043 46.0281 0.205723 46.352C0.341539 46.6759 0.540611 46.9702 0.791569 47.2181C1.04253 47.466 1.34046 47.6626 1.66835 47.7968C1.99624 47.9309 2.34768 48 2.70259 48C3.0575 48 3.40893 47.9309 3.73682 47.7968C4.06472 47.6626 4.36265 47.466 4.61361 47.2181L26.207 25.8877C26.4584 25.6401 26.6578 25.3458 26.7939 25.0219C26.93 24.698 27 24.3507 27 24C27 23.6493 26.93 23.302 26.7939 22.9781C26.6578 22.6542 26.4584 22.3599 26.207 22.1123L4.61361 0.781921C4.36265 0.534023 4.06472 0.337376 3.73682 0.203213C3.40893 0.0690498 3.0575 0 2.70259 0C2.34768 0 1.99624 0.0690498 1.66835 0.203213C1.34046 0.337376 1.04253 0.534023 0.791569 0.781921C0.540611 1.02982 0.341539 1.32412 0.205723 1.64802C0.0699043 1.97192 0 2.31907 0 2.66966C0 3.02024 0.0699043 3.3674 0.205723 3.6913C0.341539 4.01519 0.540611 4.30949 0.791569 4.55739L18.8979 24.0001ZM33.8979 24.0001L15.7916 43.4426C15.5406 43.6905 15.3415 43.9848 15.2057 44.3087C15.0699 44.6326 15 44.9798 15 45.3303C15 45.6809 15.0699 46.0281 15.2057 46.352C15.3415 46.6759 15.5406 46.9702 15.7916 47.2181C16.0425 47.466 16.3405 47.6626 16.6684 47.7968C16.9962 47.9309 17.3477 48 17.7026 48C18.0575 48 18.4089 47.9309 18.7368 47.7968C19.0647 47.6626 19.3626 47.466 19.6136 47.2181L41.207 25.8877C41.4584 25.6401 41.6578 25.3458 41.7939 25.0219C41.93 24.698 42 24.3507 42 24C42 23.6493 41.93 23.302 41.7939 22.9781C41.6578 22.6542 41.4584 22.3599 41.207 22.1123L19.6136 0.781921C19.3626 0.534019 19.0647 0.337376 18.7368 0.203213C18.4089 0.0690498 18.0575 0 17.7026 0C17.3477 0 16.9962 0.0690498 16.6684 0.203213C16.3405 0.337376 16.0425 0.534019 15.7916 0.781921C15.5406 1.02982 15.3415 1.32413 15.2057 1.64803C15.0699 1.97192 15 2.31907 15 2.66966C15 3.02024 15.0699 3.3674 15.2057 3.6913C15.3415 4.01519 15.5406 4.30949 15.7916 4.5574L33.8979 24.0001Z" fill="#FF9737"/>
</svg>
